<?xml version="1.0" encoding="UTF-8"?>
<svg xmlns="http://www.w3.org/2000/svg" xmlns:xlink="http://www.w3.org/1999/xlink" width="127px" height="39px" viewBox="0 0 127 39" version="1.1">
    <title>Group 3</title>
    <g id="Rebranding" stroke="none" stroke-width="1" fill="none" fill-rule="evenodd">
        <g id="Homepage/Logged-in" transform="translate(-83.000000, -3866.000000)" fill="#FFFFFF">
            <g id="Group-18" transform="translate(55.000000, 3845.000000)">
                <g id="appstore-badge" transform="translate(0.000000, 14.000000)">
                    <g id="Group-3" transform="translate(28.000000, 7.000000)">
                        <text id="Download-on-the" font-family="Muli" font-size="11.5" font-weight="normal">
                            <tspan x="29" y="14">Download on the</tspan>
                        </text>
                        <text id="App-Store" font-family="Muli-Bold, Muli" font-size="20" font-weight="bold">
                            <tspan x="29" y="33">App Store</tspan>
                        </text>
                        <path d="M18.798966,27.9341933 C17.7742526,29.426059 16.7142808,30.9087481 15.0407385,30.9398261 C13.3937017,30.9709041 12.8656883,29.9685779 10.9862664,29.9685779 C9.10487193,29.9685779 8.51632748,30.9087481 6.96124607,30.9709041 C5.34560893,31.0311024 4.11709942,29.3596206 3.08394131,27.8744844 C0.973231521,24.837896 -0.637745586,19.2885178 1.52884757,15.5434737 C2.60173922,13.6836031 4.52423559,12.5068486 6.6075523,12.4757828 C8.1941937,12.4467114 9.69304655,13.5407422 10.6621601,13.5407422 C11.632753,13.5407422 13.4520137,12.2272323 15.3645982,12.4198914 C16.1651864,12.4528169 18.4121096,12.7410591 19.855116,14.8432279 C19.7410809,14.9178518 17.1731335,16.4052393 17.2044469,19.5039837 C17.2358836,23.2055676 20.4625225,24.4359622 20.5,24.4527248 C20.4707824,24.5397186 19.9841915,26.2092427 18.798966,27.9341933 Z M11.7723073,8.35363057 C12.6580827,7.32026306 14.1547165,6.55164574 15.3898709,6.5 C15.5476708,7.93539919 14.9676328,9.37278051 14.1109517,10.4085339 C13.2525447,11.4424276 11.8473856,12.2478123 10.468362,12.1402752 C10.2809746,10.7359417 10.976034,9.27133658 11.7723073,8.35363057 Z" id="logo" fill-rule="nonzero"/>
                    </g>
                </g>
            </g>
        </g>
    </g>
</svg>