<svg id="Layer_1" data-name="Layer 1" xmlns="http://www.w3.org/2000/svg" viewBox="0 0 1080 1080"><defs><style>.cls-1{fill:#013a93;}.cls-2{font-size:30.12px;fill:#f29100;font-family:Ambit-ExtraLight, Ambit;}</style></defs><title>CloudMall</title><path class="cls-1" d="M311.82,519.74a1.8,1.8,0,0,1-.09-2.19,1.14,1.14,0,0,1,1.8-.2,86,86,0,0,0,8.41,7.75,98.45,98.45,0,0,0,9.68,7,1.7,1.7,0,0,1,.49,2.09,1.2,1.2,0,0,1-1.72.69,102.1,102.1,0,0,1-9.91-7.12,90.77,90.77,0,0,1-8.66-8Zm79.32-27.4a31,31,0,0,0-11.77-7.57A28.61,28.61,0,0,0,368.3,483c-6.42.17-10.3,0-17.91,2.93-9,3.48-11.15,8-23.39,8-5,0-8-4-10.64-5.55a13.53,13.53,0,0,0-6.11-1.86,12.41,12.41,0,0,0-5.78.91,7.55,7.55,0,0,0-3.71,3.78c-1.78,3.77-1.72,8.22-.63,12.66a47.6,47.6,0,0,0,7.74,16c8,11,20.15,18.62,33.14,22s27.08,2.65,38.69-3.13c10.27-5.11,16.06-12,18.39-19.21A25.58,25.58,0,0,0,398.4,505a29.38,29.38,0,0,0-7.26-12.65Z"/><circle class="cls-1" cx="328.48" cy="474.58" r="12.68"/><circle class="cls-1" cx="372.12" cy="464.44" r="12.68"/><path class="cls-1" d="M439.77,529.39q-9.64,0-15.54-5.57t-5.9-15.88a21.43,21.43,0,0,1,5.86-15.38,19.44,19.44,0,0,1,14.67-6.15,21.27,21.27,0,0,1,13.59,4.37q5.52,4.37,7,13.34l-11.39,2.33c-.5-3.55-1.52-6.22-3.07-8a7.23,7.23,0,0,0-5.65-2.7A7.31,7.31,0,0,0,433,499c-1.53,2.19-2.29,5.16-2.29,8.93s.82,6.66,2.45,8.85a8,8,0,0,0,6.78,3.29q6.31,0,9.06-8.31l10.39,4.4a25.52,25.52,0,0,1-7.73,9.81Q447,529.39,439.77,529.39Z"/><path class="cls-1" d="M466.2,529V470.62h12V529Z"/><path class="cls-1" d="M507.43,529.39q-9.65,0-15.8-6a20.66,20.66,0,0,1-6.15-15.42q0-9.46,6.15-15.5t15.8-6q9.72,0,15.87,6t6.15,15.5a20.66,20.66,0,0,1-6.15,15.42Q517.15,529.39,507.43,529.39Zm-7-12.56a9.13,9.13,0,0,0,14,0c1.72-2.16,2.57-5.12,2.57-8.89s-.85-6.74-2.57-8.93a9.1,9.1,0,0,0-14,0q-2.56,3.24-2.57,9T500.44,516.83Z"/><path class="cls-1" d="M551.64,529.39q-7.39,0-11.38-4.43t-4-12.5V486h12.05v24.74q0,8.5,6.73,8.51a7.71,7.71,0,0,0,5.86-2.41,9.42,9.42,0,0,0,2.29-6.78V486h12v42.35H563.86v-6Q559.54,529.39,551.64,529.39Z"/><path class="cls-1" d="M601.68,529.39A17.6,17.6,0,0,1,588,523.32q-5.44-6.08-5.45-15.38T588,492.48a17.3,17.3,0,0,1,13.46-6.07q9.15,0,12.8,6.74V470.62h12v57.77H615v-7Q610.9,529.39,601.68,529.39Zm2.83-9.31a8.57,8.57,0,0,0,6.94-3.49,15,15,0,0,0,0-17.38,8.57,8.57,0,0,0-6.94-3.49,8.44,8.44,0,0,0-7,3.25q-2.57,3.24-2.57,9t2.57,8.89A8.44,8.44,0,0,0,604.51,520.08Z"/><path class="cls-1" d="M686.63,486.41q7.47,0,11.38,4.35t3.91,12.18V529H690V504.71q0-8.34-6.73-8.34a7.72,7.72,0,0,0-5.86,2.4,9.43,9.43,0,0,0-2.29,6.79V529h-12V504.71q0-8.34-6.73-8.34a7.73,7.73,0,0,0-5.86,2.4,9.47,9.47,0,0,0-2.28,6.79V529h-12V487.43h11.3v5.9a13.71,13.71,0,0,1,12.3-6.92q9,0,13,7Q677.56,486.42,686.63,486.41Z"/><path class="cls-1" d="M724.94,529.39c-4.65,0-8.44-1.15-11.34-3.45a11.29,11.29,0,0,1-4.37-9.35,11.46,11.46,0,0,1,4.53-9.15,17.5,17.5,0,0,1,11.51-3.74,16.26,16.26,0,0,1,11.22,4v-4.4q0-7.56-7.31-7.57-6.57,0-8.39,6.82l-11.14-1.83a18.75,18.75,0,0,1,7.1-10.43q5.28-3.87,13.26-3.87,8.81,0,13.67,4.29t4.86,13.09v24.6h-11.3v-5a14,14,0,0,1-5.44,4.41A16.06,16.06,0,0,1,724.94,529.39Zm3.08-8q4.82,0,8.47-5.07v-.83a10.91,10.91,0,0,0-8.47-4.08,7.59,7.59,0,0,0-4.82,1.42,4.45,4.45,0,0,0,0,7.19A7.83,7.83,0,0,0,728,521.41Z"/><path class="cls-1" d="M758.1,529V470.62h12V529Z"/><path class="cls-1" d="M780.05,529V470.62h12V529Z"/><text class="cls-2" transform="translate(721 560.8)">africa</text></svg>